<?xml version="1.0" standalone="no"?>
<!DOCTYPE svg PUBLIC "-//W3C//DTD SVG 20010904//EN"
 "http://www.w3.org/TR/2001/REC-SVG-20010904/DTD/svg10.dtd">
<svg version="1.0" xmlns="http://www.w3.org/2000/svg"
 width="700.000000pt" height="700.000000pt" viewBox="0 0 700.000000 700.000000"
 preserveAspectRatio="xMidYMid meet">
<metadata>
Created by potrace 1.14, written by Peter Selinger 2001-2017
</metadata>
<g transform="translate(0.000000,700.000000) scale(0.100000,-0.100000)"
fill="#000000" stroke="none">
<path d="M1334 6736 c-21 -21 -34 -44 -34 -59 0 -18 471 -1552 634 -2064 l7
-23 -446 0 -447 0 -34 -34 c-33 -33 -34 -35 -34 -121 0 -90 8 -119 44 -147 18
-15 46 -18 209 -18 l187 0 0 -450 0 -450 1413 0 1412 0 179 -657 c121 -448
188 -676 209 -715 17 -33 55 -81 91 -114 33 -31 95 -89 136 -130 85 -82 170
-129 266 -144 77 -13 409 -12 499 0 177 25 323 149 375 319 19 61 20 97 20
931 0 824 -1 871 -19 929 -47 153 -178 275 -332 310 -27 7 -314 11 -761 11
l-718 0 0 80 0 80 210 0 210 0 32 29 c29 25 33 36 39 102 9 85 -2 138 -32 165
-20 18 -46 19 -474 24 l-453 5 45 145 c25 80 47 147 49 149 2 2 35 -10 73 -28
123 -56 230 -71 376 -50 205 28 390 123 546 278 314 313 381 765 157 1067 -78
104 -224 197 -361 229 -69 16 -207 19 -277 5 -25 -4 -46 -7 -48 -6 -1 2 16 61
38 132 43 139 46 159 28 199 -26 58 60 55 -1524 55 l-1456 0 -34 -34z m3202
-636 c101 -18 109 -24 130 -93 89 -293 -167 -675 -511 -762 -91 -23 -225 -18
-225 9 0 6 54 182 119 391 l118 380 75 32 c110 48 194 60 294 43z m997 -2387
l-63 -4 0 -758 c0 -732 -1 -760 -19 -782 -19 -23 -23 -24 -181 -24 l-163 0
-183 670 c-151 550 -183 678 -179 714 6 52 46 124 81 147 61 41 87 43 434 42
184 -1 307 -3 273 -5z"/>
<path d="M1426 2299 c-14 -11 -31 -29 -36 -39 -9 -17 -116 -495 -154 -685 -35
-176 -49 -332 -50 -540 -1 -175 2 -221 17 -275 25 -87 88 -216 129 -263 62
-70 6 -68 1526 -65 1467 4 1424 2 1471 59 34 41 98 170 123 249 21 69 23 92
22 275 -1 214 -17 361 -60 570 -39 183 -152 636 -169 673 -30 66 55 62 -1438
62 l-1354 0 -27 -21z m2718 -150 c27 -22 52 -92 100 -284 65 -264 92 -577 67
-770 -24 -178 -103 -345 -201 -424 -55 -44 -148 -91 -181 -91 -44 0 -79 35
-79 79 0 43 13 57 85 94 95 48 164 142 201 278 15 51 18 101 18 254 0 214 -18
343 -81 585 -57 218 -58 226 -45 255 21 45 75 57 116 24z"/>
</g>
</svg>
