<svg class="svg-icon" fill="#fff" viewBox="0 0 1024 1024" version="1.1" xmlns="http://www.w3.org/2000/svg"><path d="M268.73504 406.08248c0 14.13 11.41504 25.53752 25.54248 25.53752l435.35752 0c14.13 0 25.55-11.40752 25.55-25.53752 0-14.09-11.42-25.53504-25.55-25.53504L294.27752 380.54744C280.15 380.54752 268.73504 391.99248 268.73504 406.08248zM294.27752 595c-14.12752 0-25.54248 11.51-25.54248 25.55 0 14.13 11.41504 25.54 25.54248 25.54l317.47248 0c14.13 0 25.53504-11.41 25.53504-25.54 0-14.04-11.40504-25.55-25.53504-25.55L294.27752 595zM387.7 203.58752 624.84 203.58752c38.15504 0 69.27504-29.05504 69.27504-64.77248s-31.12-64.76752-69.27504-64.76752l-22.83 0c-7.42504-40.94504-47.48504-72.31504-95.69504-72.31504-48.17504 0-88.28504 31.37-95.66248 72.31504L387.7 74.04752c-38.11248 0-69.12 29.05-69.12 64.76752S349.58752 203.58752 387.7 203.58752zM387.7 125.13l48.73504 0c7.77504 0 15.16-3.55504 19.99-9.66 4.87-6.14248 6.62504-14.12504 4.87-21.71-0.51504-2.27248-0.8-4.31248-0.8-6.06504 0-18.91504 20.99-34.87752 45.82-34.87752 24.82 0 45.77 15.96248 45.77 34.87752 0 2.03504-0.24 4.03248-0.68 5.86504-1.84 7.62504-0.08 15.68752 4.75 21.83 4.86504 6.14504 12.25504 9.74 20.07504 9.74L624.84 125.13c9.90504 0 18.19 6.26248 18.19 13.68504 0 7.42504-8.28504 13.69-18.19 13.69L387.7 152.50504c-9.77504 0-18.03248-6.26504-18.03248-13.69C369.66752 131.39248 377.92504 125.13 387.7 125.13zM832.20504 93.20248l-79.98 0c-14.12504 0-25.55 11.41504-25.55 25.54248 0 14.08504 11.42504 25.54 25.55 25.54l79.98 0c34.16 0 61.93504 30.73 61.93504 68.52l0 689.81504c0 37.84-27.77504 68.56-61.93504 68.56L191.67248 971.18c-34.07752 0-61.81752-30.72-61.81752-68.56L129.85496 212.80504c0-37.79 27.74-68.52 61.81752-68.52l75.23 0c14.08752 0 25.54248-11.45504 25.54248-25.54 0-14.12752-11.45504-25.54248-25.54248-25.54248l-75.23 0c-62.21504 0-112.89752 53.63504-112.89752 119.60248l0 689.81504c0 66.01 50.68248 119.65 112.89752 119.65l640.53248 0c62.25504 0 113.02-53.64 113.02-119.65L945.22496 212.80504C945.14504 146.83752 894.46 93.20248 832.20504 93.20248z"  /></svg>