<svg viewBox="0 0 1024 1024" version="1.1" xmlns="http://www.w3.org/2000/svg"><path d="M234.965333 170.666667H789.333333a42.666667 42.666667 0 0 1 9.514667 1.066666l4.608 1.322667a85.333333 85.333333 0 0 1 46.72 121.258667l-4.053333 6.741333-3.882667 4.992L640 528.426667V810.666667a42.666667 42.666667 0 0 1-64.341333 36.736L571.733333 844.8l-170.666666-128a42.666667 42.666667 0 0 1-16.768-29.141333L384 682.666667v-154.197334L181.76 306.048l-3.84-4.992a85.333333 85.333333 0 0 1 35.968-125.354667l6.4-2.56 4.608-1.365333 5.077333-0.853333A42.112 42.112 0 0 1 234.965333 170.666667z m537.429334 85.333333H251.562667l206.677333 227.285333a42.666667 42.666667 0 0 1 10.752 23.466667L469.333333 512v149.333333l85.333334 64v-213.333333a42.666667 42.666667 0 0 1 7.808-24.576l3.285333-4.138667L772.394667 256z" fill="#303030" /></svg>