
<svg class="svg-icon" viewBox="0 0 1024 1024" version="1.1" xmlns="http://www.w3.org/2000/svg"><path d="M675.316 130.562c19.574 26.504 10.032 70.878-22.546 101.31-33.886 31.656-79.848 36.224-102.656 10.204-22.81-26.02-13.83-72.776 20.056-104.43a112.814 112.814 0 0 1 8.39-7.084H520.8c-11.324 16.312-19.188 34.45-22.762 53.052-6.32 32.902 1.408 64.722 21.202 87.3 19.792 22.58 49.696 33.688 82.04 30.47 28.24-2.804 56.448-16.174 79.43-37.642 22.982-21.468 38.678-49.112 44.194-77.84 3.724-19.384 2.534-38.376-3.09-55.342h-46.498z" fill="#FF4B34" /><path d="M723.702 118.602c-19.792-22.58-49.694-33.686-82.038-30.472-28.24 2.808-56.448 16.176-79.43 37.646-22.982 21.468-38.676 49.112-44.194 77.838-6.32 32.902 1.408 64.722 21.202 87.302 19.792 22.58 49.696 33.686 82.04 30.47 28.24-2.806 56.448-16.174 79.43-37.642 22.982-21.47 38.678-49.112 44.194-77.84 6.318-32.902-1.412-64.722-21.204-87.302z m-50.93 133.272c-33.888 31.656-79.848 36.224-102.658 10.204-22.81-26.02-13.83-72.776 20.056-104.43 33.886-31.656 79.848-36.224 102.658-10.204 22.81 26.018 13.83 72.774-20.056 104.43z" fill="#FFC34C" /><path d="M723.702 118.602c-19.792-22.58-49.694-33.686-82.038-30.472-28.24 2.808-56.448 16.176-79.43 37.646-22.982 21.468-38.676 49.112-44.194 77.838-6.32 32.902 1.408 64.722 21.202 87.302 19.792 22.58 49.696 33.686 82.04 30.47 28.24-2.806 56.448-16.174 79.43-37.642 22.982-21.47 38.678-49.112 44.194-77.84 6.318-32.902-1.412-64.722-21.204-87.302z m-50.93 133.272c-33.888 31.656-79.848 36.224-102.658 10.204-22.81-26.02-13.83-72.776 20.056-104.43 33.886-31.656 79.848-36.224 102.658-10.204 22.81 26.018 13.83 72.774-20.056 104.43z" fill="#FF9079" /><path d="M570.114 262.076c-22.81-26.02-13.83-72.776 20.056-104.43 25.65-23.96 58.21-32.386 82.42-23.792l12.708-40.868c-13.45-4.64-28.258-6.384-43.634-4.858-28.24 2.808-56.448 16.178-79.43 37.646-22.982 21.468-38.676 49.112-44.194 77.838-6.32 32.902 1.408 64.722 21.202 87.3 18.326 20.906 45.322 31.952 74.894 30.928l14.03-45.118c-22.606 5.506-44.448 0.874-58.052-14.646z" fill="#FF624B" /><path d="M799.93 481.712v219.032a9.48 9.48 0 0 1-9.482 9.48h-54.458a9.502 9.502 0 0 1-9.148-6.988l-54.972-201.8c-2.856-6.61-3.24-13.458-1.718-19.722h-126.214v27.198h71.108l13.26 49.046 43.648 160.23c7.846 28.806 34.18 48.926 64.034 48.926h54.458c36.594 0 66.368-29.774 66.368-66.37V481.712h-56.884z" fill="#8C4C17" /><path d="M814.448 422.826H567.938v108.086h71.108l13.26 49.046 43.648 160.232c7.846 28.806 34.18 48.924 64.034 48.924h54.458c36.594 0 66.368-29.772 66.368-66.368V489.194c0.002-36.596-29.77-66.368-66.366-66.368z m9.482 299.918a9.48 9.48 0 0 1-9.482 9.482h-54.458a9.502 9.502 0 0 1-9.148-6.988l-54.972-201.802c-8.932-20.666 6.22-43.722 28.734-43.722h89.846a9.48 9.48 0 0 1 9.482 9.482v233.548z" fill="#A56021" /><path d="M814.448 422.826H567.938v108.086h71.108l13.26 49.046 43.648 160.232c7.846 28.806 34.18 48.924 64.034 48.924h54.458c36.594 0 66.368-29.772 66.368-66.368V489.194c0.002-36.596-29.77-66.368-66.366-66.368z m9.482 299.918a9.48 9.48 0 0 1-9.482 9.482h-54.458a9.502 9.502 0 0 1-9.148-6.988l-54.972-201.802c-8.932-20.666 6.22-43.722 28.734-43.722h89.846a9.48 9.48 0 0 1 9.482 9.482v233.548z" fill="#BF6C0D" /><path d="M770.976 767.348l-8.734-35.124h-2.252a9.502 9.502 0 0 1-9.148-6.988l-52.936-194.326-2.036-7.474c-8.932-20.666 6.22-43.722 28.734-43.722h47.58v-56.886H567.94v108.084h71.108l13.26 49.046 43.648 160.23c7.846 28.806 34.18 48.926 64.034 48.926h15.876a489.66 489.66 0 0 0-4.89-21.766z" fill="#A56021" /><path d="M544.32 353.402H284.37L191.032 53.246c-3.036-9.764 4.26-19.674 14.486-19.674h417.656c10.226 0 17.522 9.91 14.486 19.674l-93.34 300.156z" fill="#FF624B" /><path d="M207.656 393.118h404.528v137.792H207.656z" fill="#BF6C0D" /><path d="M612.184 530.91H207.656L154.53 773.882a491.616 491.616 0 0 0-11.346 105.01v7.088c0 36.488 13.986 69.7 36.872 94.598 14.174 6.284 30.202 9.852 47.194 9.852h374.188c16.992 0 33.018-3.566 47.194-9.852 22.888-24.9 36.872-58.11 36.872-94.598 0-39.988-4.878-79.826-14.528-118.632l-58.792-236.438z" fill="#FFEACF" /><path d="M669.504 400.072H159.184a16 16 0 0 1-16-16v-16.038a16 16 0 0 1 16-16h510.32a16 16 0 0 1 16 16v16.038a16 16 0 0 1-16 16z" fill="#FF9079" /><path d="M285.516 33.57h-80c-10.226 0-17.522 9.91-14.486 19.676l93.34 300.154h80L271.032 53.246c-3.038-9.766 4.26-19.676 14.484-19.676z" fill="#FF4B34" /><path d="M223.184 390.034a16 16 0 0 1 16-16h446.32v-6a16 16 0 0 0-16-16H159.184a16 16 0 0 0-16 16v16.038a16 16 0 0 0 16 16h64v-10.038z" fill="#FF624B" /><path d="M303.656 433.118h308.528v-40H207.656v137.792h80v-81.792a16 16 0 0 1 16-16z" fill="#A56021" /><path d="M229.184 885.978v-7.088c0-35.308 3.804-70.514 11.346-105.008l53.126-242.972h-86L154.53 773.882a491.61 491.61 0 0 0-11.346 105.008v7.088c0 36.488 13.986 69.7 36.872 94.6 14.174 6.286 30.202 9.852 47.194 9.852h86c-16.992 0-33.018-3.566-47.194-9.852-22.886-24.9-36.872-58.112-36.872-94.6z" fill="#FFD59A" /><path d="M607.078 685H217.552a16 16 0 0 0-15.63 12.582l-18.084 82.708a461.672 461.672 0 0 0-10.654 98.608v7.08a109.466 109.466 0 0 0 24.772 69.468c9.252 3.308 19.08 4.982 29.294 4.982h374.188c10.216 0 20.042-1.674 29.294-4.982a109.48 109.48 0 0 0 24.772-69.468c0-37.51-4.59-74.988-13.642-111.39l-19.258-77.448a15.998 15.998 0 0 0-15.526-12.14z" fill="#A56021" /><path d="M240.53 773.882l19.434-88.882h-42.412a16 16 0 0 0-15.63 12.582l-18.084 82.708a461.658 461.658 0 0 0-10.654 98.608v7.08a109.466 109.466 0 0 0 24.772 69.468c9.252 3.308 19.08 4.982 29.294 4.982h23.394c-13.592-21.556-21.46-47.082-21.46-74.452v-7.088c0-35.306 3.804-70.512 11.346-105.006z" fill="#8C4C17" /><path d="M574.432 939.418a12 12 0 0 1-3.934-23.34c29.906-10.38 42.33-44.966 36.928-102.8-4.34-46.482-19.258-90.256-19.41-90.694a12 12 0 0 1 22.692-7.814c2.672 7.758 64.366 190.416-32.342 223.982a11.962 11.962 0 0 1-3.934 0.666z" fill="#FFD59A" /><path d="M355.996 512a12 12 0 0 1-0.236-23.998l211.938-4.228c6.542-0.082 12.104 5.132 12.238 11.758a12.002 12.002 0 0 1-11.758 12.238l-211.938 4.228-0.244 0.002zM856.816 650.728a12 12 0 0 1-12-12V526.88a12 12 0 0 1 24 0v111.848a12 12 0 0 1-12 12z" fill="#E58D23" /><path d="M512.006 313.936a12 12 0 0 1-11.538-15.326l55.938-194.06a11.994 11.994 0 0 1 14.854-8.206 12 12 0 0 1 8.206 14.854l-55.938 194.06a12.002 12.002 0 0 1-11.522 8.678z" fill="#FF9079" /><path d="M295.782 872m-41.334 0a41.334 41.334 0 1 0 82.668 0 41.334 41.334 0 1 0-82.668 0Z" fill="#8C4C17" /><path d="M584.28 672.174a12 12 0 0 1-11.608-8.998l-18.516-71.572a12 12 0 0 1 8.612-14.624 11.996 11.996 0 0 1 14.624 8.612l18.516 71.572a12 12 0 0 1-11.628 15.01z" fill="#FCF9DE" /></svg>