<svg xmlns="http://www.w3.org/2000/svg" version="1.1" viewBox="-5.0 -10.0 110.0 135.0">
 <g>
  <path d="m18.648 78.816c-4.5352-5.3633-6.293-11.445-5.5156-18.5 2.3242-21.059 27.758-46.168 49.703-46.867 4.2852-0.11719 11.395 1.4648 14.527 4.7109-2.7695 6.7578-5.6094 11.668-13.23 13.676-1.9844 0.52344-4 0.85937-5.957 1.4961-9.3203 3.0352-16.496 10.766-18.758 20.332-0.79688 3.3789-0.75 5.5273-2.9727 8.5195-3.668 4.9453-9.9297 6.0195-14.387 11.152-0.96875 1.1562-3.0469 4.0742-3.4102 5.4805z"/>
  <path d="m22.398 82.527c2.0195-6.3828 5.793-8.5781 11.051-11.523 5.1016-2.8594 8.7578-7.4414 10.086-13.203 0.24219-1.0469 0.38672-2.1172 0.61328-3.168 1.6875-7.8242 7.9805-14.371 15.551-16.785 2.1875-0.69531 4.4727-1.0195 6.6719-1.6719 5.3867-1.5898 9.6953-5.1875 12.504-10.012 0.89062-1.5352 1.5469-3.1758 2.3945-4.7266 6.5898 6.7148 7.1367 17.305 4.3711 25.875-6.3672 19.719-33.02 46.477-55.973 39.059-2.6758-0.78516-5.0195-2.2461-7.2695-3.8438z"/>
 </g>
<text x="0.0" y="117.5" font-size="5.0" font-weight="bold" font-family="Arbeit Regular, Helvetica, Arial-Unicode, Arial, Sans-serif" fill="#000000">Created by Dzakiyyah Thoyyibah</text><text x="0.0" y="122.5" font-size="5.0" font-weight="bold" font-family="Arbeit Regular, Helvetica, Arial-Unicode, Arial, Sans-serif" fill="#000000">from Noun Project</text></svg>