<svg class="svg-icon" style="width: 1em; height: 1em;vertical-align: middle;fill: currentColor;overflow: hidden;" viewBox="0 0 1024 1024" version="1.1" xmlns="http://www.w3.org/2000/svg"><path d="M219.136 846.848c-45.056 0-81.408-36.352-81.408-81.408V577.024c0-14.848 11.776-26.624 26.624-26.624 14.848 0 26.624 11.776 26.624 26.624v174.592c0 25.6 16.384 41.984 41.984 41.984h558.08c25.6 0 41.984-16.384 41.984-41.984V577.024c0-7.168 2.56-13.824 7.68-18.944s11.776-7.68 18.944-7.68c14.848 0 26.624 11.776 26.624 26.624v187.392c0 22.016-8.704 43.008-24.064 58.368s-36.352 24.064-58.368 24.064H219.136z" fill="#2C2C2C" /><path d="M512 660.992c-7.168 0-13.824-2.56-18.944-7.68s-7.68-11.776-7.68-18.944V232.96L352.768 365.568c-5.12 5.12-11.776 7.68-18.944 7.68-7.168 0-13.824-2.56-18.944-7.68-10.24-10.24-10.24-27.136 0-37.376l177.664-178.176c5.12-5.12 11.776-7.68 18.944-7.68 7.168 0 13.824 2.56 18.944 7.68L708.096 327.68c10.24 10.24 10.24 27.136 0 37.376-5.12 5.12-11.776 7.68-18.944 7.68-7.168 0-13.824-2.56-18.944-7.68L537.6 232.448V634.88c1.024 14.336-10.752 26.112-25.6 26.112z" fill="#2C2C2C" /></svg>